<svg xmlns="http://www.w3.org/2000/svg" version="1.1" xmlns:xlink="http://www.w3.org/1999/xlink" xmlns:svgjs="http://svgjs.com/svgjs" width="1440" height="560" preserveAspectRatio="none" viewBox="0 0 1440 560">
    <g mask="url(&quot;#SvgjsMask2369&quot;)" fill="none">
        <path d="M634.554,289.568C688.8,286.635,731.469,246.76,756.272,198.427C778.829,154.471,777.719,102.536,752.26,60.195C727.577,19.144,682.397,-1.66,634.554,-4C581.478,-6.596,524.85,3.612,495.06,47.616C461.913,96.578,458.151,161.725,487.683,212.949C517.243,264.221,575.457,292.763,634.554,289.568" fill="rgba(28, 83, 142, 0.4)" class="triangle-float1"></path>
        <path d="M537.832,532.53C558.134,533.571,577.288,523.031,588.059,505.79C599.529,487.43,603.613,463.801,592.297,445.346C581.364,427.515,558.748,423.877,537.832,423.874C516.909,423.871,493.345,426.955,483.339,445.33C473.582,463.247,484.989,483.758,495.8,501.059C505.741,516.967,519.098,531.569,537.832,532.53" fill="rgba(28, 83, 142, 0.4)" class="triangle-float1"></path>
        <path d="M1281.774,465.931C1329.497,469.632,1374.394,438.615,1395.992,395.899C1415.852,356.62,1402.851,310.804,1378.869,273.897C1357.263,240.647,1321.387,221.899,1281.774,220.125C1238.307,218.178,1189.146,226.249,1168.345,264.466C1148.063,301.731,1173.79,343.312,1194.605,380.282C1216.025,418.326,1238.245,462.556,1281.774,465.931" fill="rgba(28, 83, 142, 0.4)" class="triangle-float1"></path>
        <path d="M951.877,606.832C979.453,606.562,1006.929,596.435,1021.166,572.817C1035.833,548.486,1033.912,518.245,1020.314,493.301C1006.06,467.154,981.657,445.83,951.877,445.714C921.932,445.598,897.102,466.615,882.513,492.766C868.334,518.182,865.078,549.329,880.2,574.196C894.819,598.237,923.741,607.107,951.877,606.832" fill="rgba(28, 83, 142, 0.4)" class="triangle-float1"></path>
        <path d="M653.52,499.413C707.696,501.011,767.988,492.298,795.321,445.495C822.808,398.429,800.567,341.664,773.161,294.55C745.958,247.786,707.592,199.984,653.52,201.725C601.193,203.409,571.493,255.835,546.515,301.846C523.111,344.957,502.144,394.4,525.506,437.534C549.698,482.201,602.744,497.915,653.52,499.413" fill="rgba(28, 83, 142, 0.4)" class="triangle-float1"></path>
        <path d="M191.975,255.114C233.986,255.209,282.852,255.572,303.963,219.25C325.13,182.832,301.449,140.024,279.906,103.827C259.054,68.791,232.714,32.711,191.975,31.081C149.056,29.364,112.837,59.308,90.953,96.268C68.584,134.047,57.301,181.698,80.862,218.745C103.277,253.99,150.206,255.019,191.975,255.114" fill="rgba(28, 83, 142, 0.4)" class="triangle-float1"></path>
        <path d="M1146.675,373.758C1162.16,372.633,1172.003,358.998,1179.704,345.516C1187.319,332.185,1193.691,316.984,1186.998,303.167C1179.539,287.769,1163.777,276.84,1146.675,277.332C1130.238,277.805,1118.401,291.135,1110.179,305.376C1101.956,319.618,1096.394,336.498,1104.137,351.006C1112.252,366.21,1129.486,375.007,1146.675,373.758" fill="rgba(28, 83, 142, 0.4)" class="triangle-float3"></path>
        <path d="M964.802,286.667C1004.928,285.974,1047.247,278.803,1069.201,245.208C1093.031,208.741,1095.126,159.935,1071.561,123.296C1049.5,88.996,1005.583,83.124,964.802,82.887C923.449,82.647,878.836,87.65,855.876,122.045C830.706,159.751,828.949,211.117,853.965,248.925C877.048,283.811,922.977,287.389,964.802,286.667" fill="rgba(28, 83, 142, 0.4)" class="triangle-float3"></path>
        <path d="M1036.741,154.613C1060.859,154.28,1085.729,149.062,1099.241,129.082C1114.408,106.655,1119.537,76.434,1105.104,53.528C1091.327,31.664,1062.583,29.886,1036.741,29.895C1010.922,29.904,982.527,31.925,968.465,53.578C953.42,76.745,955.711,107.962,971.178,130.85C985.128,151.493,1011.829,154.957,1036.741,154.613" fill="rgba(28, 83, 142, 0.4)" class="triangle-float3"></path>
        <path d="M664.375,545.598C702.018,546.654,731.05,514.523,747.324,480.563C761.443,451.1,754.334,418.426,739.188,389.478C722.504,357.592,700.362,322.176,664.375,322.028C628.249,321.88,604.346,356.399,588.491,388.86C574.808,416.875,575.524,448.064,589.11,476.126C605.056,509.062,627.796,544.572,664.375,545.598" fill="rgba(28, 83, 142, 0.4)" class="triangle-float1"></path>
    </g>
    <defs>
        <mask id="SvgjsMask2369">
            <rect width="1440" height="560" fill="#ffffff"></rect>
        </mask>
        <style>
            @keyframes float1 {
                0%{transform: translate(0, 0)}
                50%{transform: translate(-10px, 0)}
                100%{transform: translate(0, 0)}
            }

            .triangle-float1 {
                animation: float1 5s infinite;
            }

            @keyframes float2 {
                0%{transform: translate(0, 0)}
                50%{transform: translate(-5px, -5px)}
                100%{transform: translate(0, 0)}
            }

            .triangle-float2 {
                animation: float2 4s infinite;
            }

            @keyframes float3 {
                0%{transform: translate(0, 0)}
                50%{transform: translate(0, -10px)}
                100%{transform: translate(0, 0)}
            }

            .triangle-float3 {
                animation: float3 6s infinite;
            }
        </style>
    </defs>
</svg>